<svg xmlns="http://www.w3.org/2000/svg" width="50" height="50" enable-background="new 0 0 500 500" viewBox="0 0 500 500"><path fill="#fff" d="M402.991,205.284c0,0,4.58,9.222,15.248,10.749c10.667,1.526-2.36,21.335-29.789,48.762
		c-19.854,19.852-36.486-2.062-44.161-15.683c5-3.179,8.344-8.732,8.344-15.096c0-9.894-8.021-17.914-17.914-17.914
		s-17.914,8.021-17.914,17.914c0,9.892,8.021,17.914,17.914,17.914c2.38,0,4.644-0.487,6.724-1.331
		c0.958,14.77-3.414,38.936-44.298,32.48c-57.904-9.144-22.618-65.524-22.618-65.524l27.668-32L250.175,79.055l-52.662,106.501
		l27.348,32c0,0,35.127,56.381-22.777,65.524c-40.347,6.371-45.175-17.082-44.397-31.893c1.548,0.433,3.15,0.743,4.838,0.743
		c9.894,0,17.914-8.022,17.914-17.914c0-9.894-8.021-17.914-17.914-17.914c-9.891,0-17.914,8.021-17.914,17.914
		c0,6.948,4.003,12.913,9.79,15.878c-7.872,13.656-24.268,34.376-43.743,14.9c-27.428-27.427-40.475-47.235-29.808-48.762
		c10.667-1.527,15.238-10.749,15.238-10.749l-80.76-44.107c0,0,33.522,35.044,33.522,56.379c0,15.175,12.708,73.012,12.708,73.012
		s12.909,14.534,26.862,15.438c0,0-8.917,17.465-6.56,43.994h335.245c0.056-0.426,0.089-0.841-0.046-1.239
		c1.609-25.837-6.63-42.755-6.63-42.755c13.547-0.877,26.425-14.682,26.425-14.682s13.295-58.338,13.295-73.691
		c0-21.334,33.596-56.456,33.596-56.456L402.991,205.284z M133.476,329.215c-5.648,0-10.226-4.576-10.226-10.225
		c0-5.646,4.578-10.225,10.226-10.225c5.647,0,10.225,4.578,10.225,10.225C143.7,324.639,139.123,329.215,133.476,329.215z
		 M190.476,329.215c-5.648,0-10.226-4.576-10.226-10.225c0-5.646,4.578-10.225,10.226-10.225c5.647,0,10.225,4.578,10.225,10.225
		C200.7,324.639,196.123,329.215,190.476,329.215z M225.589,170.208c-0.001-14.207,13.706-29.446,19.601-35.342
		c0.521-0.521,0.818-0.804,0.818-0.804l3.79-3.586l3.943,3.419c0.807,0.702,19.742,17.373,19.74,35.451
		c0,13.789-11.178,27.028-17.842,33.692c-1.588,1.589-2.631,2.508-2.745,2.608l-3.942,3.447l-3.801-3.599
		C243.148,203.602,225.589,186.511,225.589,170.208z M252.069,337.326c-0.305,0.306-0.479,0.471-0.479,0.471l-2.212,2.093
		l-2.304-1.994c-0.471-0.41-11.531-10.148-11.529-20.706c0-8.054,6.529-15.787,10.422-19.679c0.927-0.926,1.536-1.464,1.603-1.521
		l2.3-2.016l2.221,2.103c1.169,1.107,11.425,11.087,11.425,20.61C263.517,324.982,255.511,333.884,252.069,337.326z
		 M308.476,329.215c-5.648,0-10.226-4.576-10.226-10.225c0-5.646,4.578-10.225,10.226-10.225c5.647,0,10.225,4.578,10.225,10.225
		C318.7,324.639,314.123,329.215,308.476,329.215z M365.476,329.215c-5.648,0-10.226-4.576-10.226-10.225
		c0-5.646,4.578-10.225,10.226-10.225c5.647,0,10.225,4.578,10.225,10.225C375.7,324.639,371.123,329.215,365.476,329.215z"/><path fill="#fff" d="M249.199 194.334c0 0 14.502-12.697 14.501-24.893.001-12.194-13.828-24.219-13.828-24.219s-14.503 13.761-14.502 24.891C235.37 181.244 249.199 194.334 249.199 194.334zM82 372.401c0 3.938 2.83 7.599 6.769 7.599h321.98c3.939 0 6.251-3.661 6.251-7.599V362H82V372.401z"/><polygon fill="#fff" points="432.062 138.076 440.709 111.779 467.004 103.131 440.709 94.49 432.062 68.189 423.418 94.49 397.121 103.131 423.418 111.779"/><polygon fill="#fff" points="373.893 178.092 379.951 159.664 398.379 153.605 379.951 147.547 373.893 129.117 367.834 147.547 349.406 153.605 367.834 159.664"/></svg>