<svg width="50" height="50" viewBox="0 0 146 93" fill="#fff" xmlns="http://www.w3.org/2000/svg">
<path d="M0.0480001 1.192H3.12V44.776L20.208 29.8H24.144L4.368 47.08L29.136 73H25.008L3.12 49.96V73H0.0480001V1.192ZM57.3578 74.344C53.0698 74.344 49.1018 73.32 45.4538 71.272C41.8058 69.224 38.8938 66.408 36.7178 62.824C34.5418 59.176 33.4538 55.144 33.4538 50.728C33.4538 45.288 35.0538 40.424 38.2538 36.136C41.4538 31.784 45.6458 28.84 50.8298 27.304C48.3338 26.152 46.2858 24.392 44.6858 22.024C43.1498 19.592 42.3818 16.968 42.3818 14.152C42.3818 11.592 43.0218 9.25599 44.3018 7.144C45.6458 4.968 47.4698 3.24 49.7738 1.96C52.1418 0.679996 54.7338 0.0399952 57.5498 0.0399952C61.9018 0.0399952 65.5498 1.704 68.4938 5.032V10.12C67.5338 7.944 65.9978 6.184 63.8858 4.84C61.8378 3.432 59.5338 2.72799 56.9738 2.72799C55.0538 2.72799 53.1978 3.272 51.4058 4.36C49.6138 5.448 48.1738 6.888 47.0858 8.68C45.9978 10.472 45.4538 12.392 45.4538 14.44C45.4538 16.488 45.9978 18.408 47.0858 20.2C48.1738 21.992 49.6138 23.432 51.4058 24.52C53.1978 25.608 55.1498 26.152 57.2618 26.152H58.6058V28.84H57.8378C54.0618 28.84 50.5098 29.832 47.1818 31.816C43.9178 33.8 41.2938 36.488 39.3098 39.88C37.3898 43.208 36.4297 46.856 36.4297 50.824C36.4297 54.728 37.3898 58.28 39.3098 61.48C41.2298 64.616 43.8218 67.08 47.0858 68.872C50.3498 70.664 53.8698 71.56 57.6458 71.56C61.5498 71.56 65.1338 70.6 68.3978 68.68C71.7258 66.76 74.3498 64.168 76.2698 60.904C78.2538 57.64 79.2458 54.088 79.2458 50.248V28.84H65.9018V26.152H95.4698V28.84H82.1258V73H79.2458V60.712C77.8378 64.616 75.0538 67.88 70.8938 70.504C66.7978 73.064 62.2858 74.344 57.3578 74.344ZM142.922 62.248C141.194 65.832 138.506 68.712 134.858 70.888C131.274 73 127.434 74.056 123.338 74.056C119.242 74.056 115.434 73.032 111.914 70.984C108.394 68.936 105.61 66.184 103.562 62.728C101.514 59.208 100.49 55.432 100.49 51.4C100.49 47.368 101.514 43.624 103.562 40.168C105.61 36.648 108.394 33.864 111.914 31.816C115.434 29.768 119.242 28.744 123.338 28.744C127.498 28.744 131.434 29.864 135.146 32.104C138.858 34.28 141.45 37.128 142.922 40.648V29.8H145.994V92.2H142.922V62.248ZM123.53 71.368C127.05 71.368 130.314 70.472 133.322 68.68C136.33 66.824 138.698 64.392 140.426 61.384C142.218 58.312 143.114 54.984 143.114 51.4C143.114 47.88 142.218 44.584 140.426 41.512C138.634 38.44 136.234 36.008 133.226 34.216C130.218 32.36 126.954 31.432 123.434 31.432C119.914 31.432 116.618 32.36 113.546 34.216C110.538 36.072 108.106 38.536 106.25 41.608C104.458 44.68 103.562 47.976 103.562 51.496C103.562 55.016 104.458 58.312 106.25 61.384C108.106 64.392 110.57 66.824 113.642 68.68C116.714 70.472 120.01 71.368 123.53 71.368Z" fill="#fff"/>
</svg>
