<svg width="25" height="25" viewBox="0 0 25 25" fill="none" xmlns="http://www.w3.org/2000/svg">
<path d="M23.3899 8.87001H20.42C20.42 4.51401 16.856 0.950012 12.5 0.950012C8.14395 0.950012 4.57995 4.51401 4.57995 8.87001H1.60995C1.24695 8.87001 0.949951 9.16701 0.949951 9.53001V23.39C0.949951 23.753 1.24695 24.05 1.60995 24.05H23.3899C23.753 24.05 24.0499 23.753 24.0499 23.39V9.53001C24.0499 9.16701 23.753 8.87001 23.3899 8.87001ZM12.5 2.27001C16.13 2.27001 19.1 5.24001 19.1 8.87001H5.89995C5.89995 5.24001 8.86995 2.27001 12.5 2.27001ZM22.7299 22.73H2.26995V10.19H22.7299V22.73ZM12.5 13.49C11.213 13.49 10.19 14.513 10.19 15.8C10.19 16.856 10.883 17.714 11.84 18.011V19.43C11.84 19.793 12.137 20.09 12.5 20.09C12.863 20.09 13.16 19.793 13.16 19.43V18.011C14.117 17.714 14.81 16.856 14.81 15.8C14.81 14.513 13.787 13.49 12.5 13.49ZM12.5 16.79C11.939 16.79 11.51 16.328 11.51 15.8C11.51 15.239 11.939 14.81 12.5 14.81C13.061 14.81 13.49 15.239 13.49 15.8C13.49 16.328 13.061 16.79 12.5 16.79Z" fill="black"/>
</svg>
