<svg xmlns:xlink="http://www.w3.org/1999/xlink" xmlns="http://www.w3.org/2000/svg" data-component="Icon" class="_c57fdd ltr-15cx5vi e1ezgy0v0" width="24"  height="24" ><defs><symbol data-icon-id="user" data-icon-set="farfetch-2020" id="iconLoaded-user"><svg xmlns="http://www.w3.org/2000/svg" viewBox="0 0 24 24"><path fill-rule="evenodd" d="M14.85 14.282a6 6 0 10-5.699 0C5.962 14.867 3 16.23 3 17v4h18v-4c0-.77-2.962-2.132-6.15-2.718zM16 9a4 4 0 11-8 0 4 4 0 018 0zm3 8.748V19H5v-1.252c.377-.218.947-.48 1.673-.74C8.269 16.438 10.287 16 12 16s3.73.438 5.327 1.009c.726.259 1.296.521 1.673.74z"></path></svg></symbol></defs><use xlink:href="#iconLoaded-user" fill="#fff"></use></svg>